<?xml version="1.0" encoding="UTF-8" standalone="no"?>
<!DOCTYPE svg PUBLIC "-//W3C//DTD SVG 1.1//EN"
 "http://www.w3.org/Graphics/SVG/1.1/DTD/svg11.dtd">
<!-- Generated by graphviz version 12.2.1 (20241206.2353)
 -->
<!-- Pages: 1 -->
<svg width="750pt" height="692pt"
 viewBox="0.00 0.00 750.43 692.00" xmlns="http://www.w3.org/2000/svg" xmlns:xlink="http://www.w3.org/1999/xlink">
<g id="graph0" class="graph" transform="scale(1 1) rotate(0) translate(4 688)">
<polygon fill="white" stroke="none" points="-4,4 -4,-688 746.43,-688 746.43,4 -4,4"/>
<!-- shiftreset.Automation -->
<g id="node1" class="node">
<title>shiftreset.Automation</title>
<g id="a_node1"><a xlink:href="hi" xlink:title="shiftreset.Automation">
<ellipse fill="none" stroke="black" cx="508.48" cy="-162" rx="91.78" ry="18"/>
<text text-anchor="middle" x="508.48" y="-156.95" font-family="Times,serif" font-size="14.00">shiftreset.Automation</text>
</a>
</g>
</g>
<!-- shiftreset.Logic -->
<g id="node2" class="node">
<title>shiftreset.Logic</title>
<ellipse fill="none" stroke="black" cx="304.48" cy="-234" rx="68.75" ry="18"/>
<text text-anchor="middle" x="304.48" y="-228.95" font-family="Times,serif" font-size="14.00">shiftreset.Logic</text>
</g>
<!-- shiftreset.Automation&#45;&gt;shiftreset.Logic -->
<g id="edge1" class="edge">
<title>shiftreset.Automation&#45;&gt;shiftreset.Logic</title>
<path fill="none" stroke="black" d="M464.21,-178.19C432.17,-189.18 388.8,-204.07 355.34,-215.55"/>
<polygon fill="black" stroke="black" points="354.6,-212.1 346.28,-218.66 356.87,-218.72 354.6,-212.1"/>
</g>
<!-- shiftreset.Entl -->
<g id="node3" class="node">
<title>shiftreset.Entl</title>
<ellipse fill="none" stroke="black" cx="512.48" cy="-234" rx="62.61" ry="18"/>
<text text-anchor="middle" x="512.48" y="-228.95" font-family="Times,serif" font-size="14.00">shiftreset.Entl</text>
</g>
<!-- shiftreset.Automation&#45;&gt;shiftreset.Entl -->
<g id="edge2" class="edge">
<title>shiftreset.Automation&#45;&gt;shiftreset.Entl</title>
<path fill="none" stroke="black" d="M509.47,-180.3C509.88,-187.59 510.38,-196.27 510.85,-204.46"/>
<polygon fill="black" stroke="black" points="507.35,-204.6 511.41,-214.38 514.34,-204.2 507.35,-204.6"/>
</g>
<!-- shiftreset.Biab -->
<g id="node4" class="node">
<title>shiftreset.Biab</title>
<ellipse fill="none" stroke="black" cx="133.48" cy="-306" rx="64.66" ry="18"/>
<text text-anchor="middle" x="133.48" y="-300.95" font-family="Times,serif" font-size="14.00">shiftreset.Biab</text>
</g>
<!-- shiftreset.Logic&#45;&gt;shiftreset.Biab -->
<g id="edge3" class="edge">
<title>shiftreset.Logic&#45;&gt;shiftreset.Biab</title>
<path fill="none" stroke="black" d="M268.63,-249.67C242.58,-260.34 207.11,-274.86 179.05,-286.34"/>
<polygon fill="black" stroke="black" points="178.02,-282.98 170.09,-290.01 180.67,-289.46 178.02,-282.98"/>
</g>
<!-- shiftreset.Ent -->
<g id="node5" class="node">
<title>shiftreset.Ent</title>
<ellipse fill="none" stroke="black" cx="276.48" cy="-306" rx="60.05" ry="18"/>
<text text-anchor="middle" x="276.48" y="-300.95" font-family="Times,serif" font-size="14.00">shiftreset.Ent</text>
</g>
<!-- shiftreset.Logic&#45;&gt;shiftreset.Ent -->
<g id="edge4" class="edge">
<title>shiftreset.Logic&#45;&gt;shiftreset.Ent</title>
<path fill="none" stroke="black" d="M297.56,-252.3C294.54,-259.85 290.92,-268.88 287.55,-277.32"/>
<polygon fill="black" stroke="black" points="284.35,-275.91 283.88,-286.49 290.84,-278.51 284.35,-275.91"/>
</g>
<!-- shiftreset.GEnt -->
<g id="node6" class="node">
<title>shiftreset.GEnt</title>
<ellipse fill="none" stroke="black" cx="421.48" cy="-306" rx="66.71" ry="18"/>
<text text-anchor="middle" x="421.48" y="-300.95" font-family="Times,serif" font-size="14.00">shiftreset.GEnt</text>
</g>
<!-- shiftreset.Logic&#45;&gt;shiftreset.GEnt -->
<g id="edge5" class="edge">
<title>shiftreset.Logic&#45;&gt;shiftreset.GEnt</title>
<path fill="none" stroke="black" d="M331.03,-250.88C347.18,-260.55 368.03,-273.02 385.64,-283.56"/>
<polygon fill="black" stroke="black" points="383.36,-286.27 393.73,-288.4 386.95,-280.26 383.36,-286.27"/>
</g>
<!-- shiftreset.Norm -->
<g id="node7" class="node">
<title>shiftreset.Norm</title>
<ellipse fill="none" stroke="black" cx="348.48" cy="-378" rx="69.26" ry="18"/>
<text text-anchor="middle" x="348.48" y="-372.95" font-family="Times,serif" font-size="14.00">shiftreset.Norm</text>
</g>
<!-- shiftreset.Entl&#45;&gt;shiftreset.Norm -->
<g id="edge6" class="edge">
<title>shiftreset.Entl&#45;&gt;shiftreset.Norm</title>
<path fill="none" stroke="black" d="M514.38,-252.17C515.57,-271.81 514.4,-303.83 497.48,-324 478.47,-346.65 449.09,-359.63 421.42,-367.06"/>
<polygon fill="black" stroke="black" points="420.86,-363.59 411.99,-369.37 422.53,-370.39 420.86,-363.59"/>
</g>
<!-- shiftreset.Biab&#45;&gt;shiftreset.Norm -->
<g id="edge10" class="edge">
<title>shiftreset.Biab&#45;&gt;shiftreset.Norm</title>
<path fill="none" stroke="black" d="M174.42,-320.33C208.91,-331.56 258.46,-347.69 295.88,-359.88"/>
<polygon fill="black" stroke="black" points="294.55,-363.12 305.14,-362.89 296.72,-356.47 294.55,-363.12"/>
</g>
<!-- shiftreset.Ent&#45;&gt;shiftreset.Norm -->
<g id="edge18" class="edge">
<title>shiftreset.Ent&#45;&gt;shiftreset.Norm</title>
<path fill="none" stroke="black" d="M293.54,-323.59C302.51,-332.31 313.66,-343.15 323.58,-352.79"/>
<polygon fill="black" stroke="black" points="320.84,-355.01 330.45,-359.47 325.72,-349.99 320.84,-355.01"/>
</g>
<!-- shiftreset.GEnt&#45;&gt;shiftreset.Norm -->
<g id="edge21" class="edge">
<title>shiftreset.GEnt&#45;&gt;shiftreset.Norm</title>
<path fill="none" stroke="black" d="M404.18,-323.59C395.15,-332.24 383.94,-343 373.94,-352.58"/>
<polygon fill="black" stroke="black" points="371.79,-349.79 367,-359.24 376.64,-354.84 371.79,-349.79"/>
</g>
<!-- shiftreset.Satisfies -->
<g id="node12" class="node">
<title>shiftreset.Satisfies</title>
<ellipse fill="none" stroke="black" cx="78.48" cy="-450" rx="78.48" ry="18"/>
<text text-anchor="middle" x="78.48" y="-444.95" font-family="Times,serif" font-size="14.00">shiftreset.Satisfies</text>
</g>
<!-- shiftreset.Norm&#45;&gt;shiftreset.Satisfies -->
<g id="edge11" class="edge">
<title>shiftreset.Norm&#45;&gt;shiftreset.Satisfies</title>
<path fill="none" stroke="black" d="M300.52,-391.43C255.81,-403.02 188.9,-420.37 140.22,-432.99"/>
<polygon fill="black" stroke="black" points="139.47,-429.57 130.66,-435.47 141.22,-436.35 139.47,-429.57"/>
</g>
<!-- shiftreset.Propriety -->
<g id="node13" class="node">
<title>shiftreset.Propriety</title>
<ellipse fill="none" stroke="black" cx="256.48" cy="-450" rx="81.55" ry="18"/>
<text text-anchor="middle" x="256.48" y="-444.95" font-family="Times,serif" font-size="14.00">shiftreset.Propriety</text>
</g>
<!-- shiftreset.Norm&#45;&gt;shiftreset.Propriety -->
<g id="edge12" class="edge">
<title>shiftreset.Norm&#45;&gt;shiftreset.Propriety</title>
<path fill="none" stroke="black" d="M327.14,-395.24C315.35,-404.21 300.49,-415.51 287.45,-425.44"/>
<polygon fill="black" stroke="black" points="285.38,-422.61 279.54,-431.45 289.62,-428.18 285.38,-422.61"/>
</g>
<!-- shiftreset.Reduction -->
<g id="node14" class="node">
<title>shiftreset.Reduction</title>
<ellipse fill="none" stroke="black" cx="441.48" cy="-450" rx="85.13" ry="18"/>
<text text-anchor="middle" x="441.48" y="-444.95" font-family="Times,serif" font-size="14.00">shiftreset.Reduction</text>
</g>
<!-- shiftreset.Norm&#45;&gt;shiftreset.Reduction -->
<g id="edge13" class="edge">
<title>shiftreset.Norm&#45;&gt;shiftreset.Reduction</title>
<path fill="none" stroke="black" d="M370.05,-395.24C382.08,-404.29 397.28,-415.73 410.55,-425.72"/>
<polygon fill="black" stroke="black" points="408.07,-428.24 418.17,-431.46 412.28,-422.65 408.07,-428.24"/>
</g>
<!-- shiftreset.ReductionOld -->
<g id="node15" class="node">
<title>shiftreset.ReductionOld</title>
<ellipse fill="none" stroke="black" cx="643.48" cy="-450" rx="98.95" ry="18"/>
<text text-anchor="middle" x="643.48" y="-444.95" font-family="Times,serif" font-size="14.00">shiftreset.ReductionOld</text>
</g>
<!-- shiftreset.Norm&#45;&gt;shiftreset.ReductionOld -->
<g id="edge14" class="edge">
<title>shiftreset.Norm&#45;&gt;shiftreset.ReductionOld</title>
<path fill="none" stroke="black" d="M398.52,-390.87C446.63,-402.29 519.78,-419.65 573.63,-432.43"/>
<polygon fill="black" stroke="black" points="572.8,-435.83 583.33,-434.73 574.41,-429.01 572.8,-435.83"/>
</g>
<!-- shiftreset.Basics -->
<g id="node8" class="node">
<title>shiftreset.Basics</title>
<ellipse fill="none" stroke="black" cx="348.48" cy="-594" rx="71.31" ry="18"/>
<text text-anchor="middle" x="348.48" y="-588.95" font-family="Times,serif" font-size="14.00">shiftreset.Basics</text>
</g>
<!-- staged.HeapF -->
<g id="node9" class="node">
<title>staged.HeapF</title>
<ellipse fill="none" stroke="black" cx="197.48" cy="-666" rx="61.59" ry="18"/>
<text text-anchor="middle" x="197.48" y="-660.95" font-family="Times,serif" font-size="14.00">staged.HeapF</text>
</g>
<!-- shiftreset.Basics&#45;&gt;staged.HeapF -->
<g id="edge7" class="edge">
<title>shiftreset.Basics&#45;&gt;staged.HeapF</title>
<path fill="none" stroke="black" d="M315.34,-610.36C293.11,-620.67 263.63,-634.34 239.71,-645.42"/>
<polygon fill="black" stroke="black" points="238.48,-642.14 230.88,-649.52 241.42,-648.49 238.48,-642.14"/>
</g>
<!-- staged.LibFmap -->
<g id="node10" class="node">
<title>staged.LibFmap</title>
<ellipse fill="none" stroke="black" cx="348.48" cy="-666" rx="71.31" ry="18"/>
<text text-anchor="middle" x="348.48" y="-660.95" font-family="Times,serif" font-size="14.00">staged.LibFmap</text>
</g>
<!-- shiftreset.Basics&#45;&gt;staged.LibFmap -->
<g id="edge8" class="edge">
<title>shiftreset.Basics&#45;&gt;staged.LibFmap</title>
<path fill="none" stroke="black" d="M348.48,-612.3C348.48,-619.59 348.48,-628.27 348.48,-636.46"/>
<polygon fill="black" stroke="black" points="344.98,-636.38 348.48,-646.38 351.98,-636.38 344.98,-636.38"/>
</g>
<!-- staged.ExtraTactics -->
<g id="node11" class="node">
<title>staged.ExtraTactics</title>
<ellipse fill="none" stroke="black" cx="521.48" cy="-666" rx="83.6" ry="18"/>
<text text-anchor="middle" x="521.48" y="-660.95" font-family="Times,serif" font-size="14.00">staged.ExtraTactics</text>
</g>
<!-- shiftreset.Basics&#45;&gt;staged.ExtraTactics -->
<g id="edge9" class="edge">
<title>shiftreset.Basics&#45;&gt;staged.ExtraTactics</title>
<path fill="none" stroke="black" d="M385.17,-609.85C410.76,-620.2 445.18,-634.13 473.03,-645.4"/>
<polygon fill="black" stroke="black" points="471.36,-648.5 481.94,-649 473.98,-642.01 471.36,-648.5"/>
</g>
<!-- shiftreset.ShiftFree -->
<g id="node16" class="node">
<title>shiftreset.ShiftFree</title>
<ellipse fill="none" stroke="black" cx="348.48" cy="-522" rx="81.55" ry="18"/>
<text text-anchor="middle" x="348.48" y="-516.95" font-family="Times,serif" font-size="14.00">shiftreset.ShiftFree</text>
</g>
<!-- shiftreset.Satisfies&#45;&gt;shiftreset.ShiftFree -->
<g id="edge15" class="edge">
<title>shiftreset.Satisfies&#45;&gt;shiftreset.ShiftFree</title>
<path fill="none" stroke="black" d="M129.26,-464.17C173.67,-475.68 238.32,-492.44 285.9,-504.78"/>
<polygon fill="black" stroke="black" points="284.98,-508.15 295.54,-507.27 286.74,-501.38 284.98,-508.15"/>
</g>
<!-- shiftreset.Propriety&#45;&gt;shiftreset.ShiftFree -->
<g id="edge17" class="edge">
<title>shiftreset.Propriety&#45;&gt;shiftreset.ShiftFree</title>
<path fill="none" stroke="black" d="M278.28,-467.59C290,-476.5 304.64,-487.64 317.52,-497.44"/>
<polygon fill="black" stroke="black" points="315.23,-500.1 325.31,-503.37 319.47,-494.53 315.23,-500.1"/>
</g>
<!-- shiftreset.Reduction&#45;&gt;shiftreset.ShiftFree -->
<g id="edge22" class="edge">
<title>shiftreset.Reduction&#45;&gt;shiftreset.ShiftFree</title>
<path fill="none" stroke="black" d="M419.44,-467.59C407.59,-476.5 392.79,-487.64 379.78,-497.44"/>
<polygon fill="black" stroke="black" points="377.78,-494.57 371.89,-503.38 381.98,-500.16 377.78,-494.57"/>
</g>
<!-- shiftreset.ReductionOld&#45;&gt;shiftreset.ShiftFree -->
<g id="edge23" class="edge">
<title>shiftreset.ReductionOld&#45;&gt;shiftreset.ShiftFree</title>
<path fill="none" stroke="black" d="M584.84,-464.91C535.37,-476.65 464.65,-493.43 413.46,-505.58"/>
<polygon fill="black" stroke="black" points="412.92,-502.11 404,-507.82 414.54,-508.92 412.92,-502.11"/>
</g>
<!-- shiftreset.ShiftFree&#45;&gt;shiftreset.Basics -->
<g id="edge16" class="edge">
<title>shiftreset.ShiftFree&#45;&gt;shiftreset.Basics</title>
<path fill="none" stroke="black" d="M348.48,-540.3C348.48,-547.59 348.48,-556.27 348.48,-564.46"/>
<polygon fill="black" stroke="black" points="344.98,-564.38 348.48,-574.38 351.98,-564.38 344.98,-564.38"/>
</g>
<!-- shiftreset.Examples -->
<g id="node17" class="node">
<title>shiftreset.Examples</title>
<ellipse fill="none" stroke="black" cx="508.48" cy="-18" rx="84.11" ry="18"/>
<text text-anchor="middle" x="508.48" y="-12.95" font-family="Times,serif" font-size="14.00">shiftreset.Examples</text>
</g>
<!-- shiftreset.ExamplesEnt -->
<g id="node18" class="node">
<title>shiftreset.ExamplesEnt</title>
<ellipse fill="none" stroke="black" cx="508.48" cy="-90" rx="96.9" ry="18"/>
<text text-anchor="middle" x="508.48" y="-84.95" font-family="Times,serif" font-size="14.00">shiftreset.ExamplesEnt</text>
</g>
<!-- shiftreset.Examples&#45;&gt;shiftreset.ExamplesEnt -->
<g id="edge19" class="edge">
<title>shiftreset.Examples&#45;&gt;shiftreset.ExamplesEnt</title>
<path fill="none" stroke="black" d="M508.48,-36.3C508.48,-43.59 508.48,-52.27 508.48,-60.46"/>
<polygon fill="black" stroke="black" points="504.98,-60.38 508.48,-70.38 511.98,-60.38 504.98,-60.38"/>
</g>
<!-- shiftreset.ExamplesEnt&#45;&gt;shiftreset.Automation -->
<g id="edge20" class="edge">
<title>shiftreset.ExamplesEnt&#45;&gt;shiftreset.Automation</title>
<path fill="none" stroke="black" d="M508.48,-108.3C508.48,-115.59 508.48,-124.27 508.48,-132.46"/>
<polygon fill="black" stroke="black" points="504.98,-132.38 508.48,-142.38 511.98,-132.38 504.98,-132.38"/>
</g>
<!-- shiftreset.Test -->
<g id="node19" class="node">
<title>shiftreset.Test</title>
<ellipse fill="none" stroke="black" cx="164.48" cy="-162" rx="63.12" ry="18"/>
<text text-anchor="middle" x="164.48" y="-156.95" font-family="Times,serif" font-size="14.00">shiftreset.Test</text>
</g>
<!-- shiftreset.Test&#45;&gt;shiftreset.Logic -->
<g id="edge24" class="edge">
<title>shiftreset.Test&#45;&gt;shiftreset.Logic</title>
<path fill="none" stroke="black" d="M194.86,-178.19C214.99,-188.26 241.64,-201.58 263.63,-212.57"/>
<polygon fill="black" stroke="black" points="261.81,-215.58 272.32,-216.92 264.94,-209.32 261.81,-215.58"/>
</g>
<!-- shiftreset.Triples -->
<g id="node20" class="node">
<title>shiftreset.Triples</title>
<ellipse fill="none" stroke="black" cx="318.48" cy="-162" rx="73.36" ry="18"/>
<text text-anchor="middle" x="318.48" y="-156.95" font-family="Times,serif" font-size="14.00">shiftreset.Triples</text>
</g>
<!-- shiftreset.Triples&#45;&gt;shiftreset.Logic -->
<g id="edge25" class="edge">
<title>shiftreset.Triples&#45;&gt;shiftreset.Logic</title>
<path fill="none" stroke="black" d="M315.02,-180.3C313.54,-187.68 311.78,-196.48 310.13,-204.75"/>
<polygon fill="black" stroke="black" points="306.72,-203.92 308.19,-214.41 313.59,-205.29 306.72,-203.92"/>
</g>
</g>
</svg>
